<?xml version="1.0" encoding="iso-8859-1"?>
<!-- Generator: Adobe Illustrator 21.0.0, SVG Export Plug-In . SVG Version: 6.00 Build 0)  -->
<svg version="1.1" id="Layer_1" xmlns="http://www.w3.org/2000/svg" xmlns:xlink="http://www.w3.org/1999/xlink" x="0px" y="0px"
	 viewBox="0 0 12 12" style="enable-background:new 0 0 12 12;" xml:space="preserve">
<rect style="display:none;" width="12" height="12"/>
<g style="display:none;">
	<path style="display:inline;fill:#ABD376;" d="M10.152,1.361L4.718,6.795c-0.146,0.146-0.384,0.146-0.53,0L1.848,4.456L0,6.304
		l3.528,3.528c0.245,0.245,0.578,0.383,0.924,0.383c0.347,0,0.679-0.138,0.924-0.383L12,3.21L10.152,1.361"/>
	<polyline style="display:inline;fill:#E5E5E5;" points="12,3.21 11.389,2.598 11.389,2.598 12,3.21 	"/>
	<path style="display:inline;fill:#97CC6C;" d="M4.453,10.216c-0.273,0-0.536-0.085-0.756-0.241c0.263-0.059,0.506-0.191,0.7-0.384
		l6.992-6.992L12,3.21L5.377,9.833C5.132,10.078,4.799,10.216,4.453,10.216"/>
</g>
<g>
	<polygon style="fill:#65FFE7;" points="4.477,10.696 -0.002,6.412 2.072,4.244 4.42,6.491 9.857,1.002 11.988,3.113 	"/>
</g>
<polyline style="display:none;fill:none;stroke:#FFFFFF;stroke-width:2;stroke-miterlimit:10;" points="1,5.328 4.448,8.594 
	10.958,2.062 "/>
<g>
</g>
<g>
</g>
<g>
</g>
<g>
</g>
<g>
</g>
<g>
</g>
<g>
</g>
<g>
</g>
<g>
</g>
<g>
</g>
<g>
</g>
<g>
</g>
<g>
</g>
<g>
</g>
<g>
</g>
</svg>
