<?xml version="1.0" encoding="UTF-8"?>
<svg width="24px" height="24px" viewBox="0 0 24 24" version="1.1" xmlns="http://www.w3.org/2000/svg" xmlns:xlink="http://www.w3.org/1999/xlink">
    <!-- Generator: Sketch 52.2 (67145) - http://www.bohemiancoding.com/sketch -->
    <title>Menu Icon - Quit</title>
    <desc>Created with Sketch.</desc>
    <g id="Menu-Icon---Quit" stroke="none" stroke-width="1" fill="none" fill-rule="evenodd">
        <g id="Group-7">
            <polygon id="Fill-1" points="0 24 24 24 24 0 0 0"></polygon>
            <g id="Group-6" transform="translate(1.500000, 1.500000)" fill="#182638">
                <path d="M10.5,11.25 C10.0855,11.25 9.75,10.9145 9.75,10.5 L9.75,1 C9.75,0.5855 10.0855,0.25 10.5,0.25 C10.9145,0.25 11.25,0.5855 11.25,1 L11.25,10.5 C11.25,10.9145 10.9145,11.25 10.5,11.25" id="Fill-2"></path>
                <path d="M10.5,20.75 C4.848,20.75 0.25,16.152 0.25,10.5 C0.25,6.536 2.579,2.8905 6.1835,1.212 C6.559,1.038 7.005,1.2 7.18,1.5755 C7.3545,1.951 7.192,2.397 6.8165,2.572 C3.739,4.005 1.75,7.117 1.75,10.5 C1.75,15.3245 5.6755,19.25 10.5,19.25 C15.3245,19.25 19.25,15.3245 19.25,10.5 C19.25,7.117 17.261,4.005 14.1835,2.572 C13.808,2.397 13.6455,1.951 13.82,1.5755 C13.995,1.2 14.44,1.038 14.8165,1.212 C18.421,2.8905 20.75,6.536 20.75,10.5 C20.75,16.152 16.152,20.75 10.5,20.75" id="Fill-4"></path>
            </g>
        </g>
    </g>
</svg>